<svg width="180" height="42" viewBox="0 0 180 42" fill="none" xmlns="http://www.w3.org/2000/svg">
  <rect x="1" y="1" width="40" height="40" rx="12" fill="#111111"/>
  <path d="M13 27L20 14L27 27" stroke="#F8F7F4" stroke-width="3" stroke-linecap="round" stroke-linejoin="round"/>
  <path d="M17 23H25" stroke="#F8F7F4" stroke-width="3" stroke-linecap="round"/>
  <path d="M51 14H57V28H65V33H51V14Z" fill="#111111"/>
  <path d="M70 14H84V19H76V21H83V26H76V28H84V33H70V14Z" fill="#111111"/>
  <path d="M90 14H97L104 33H98L97 30H90L89 33H83L90 14ZM91.5 25.5H95.5L93.5 19.5L91.5 25.5Z" fill="#111111"/>
  <path d="M108 14H116C122 14 126 17.5 126 23.5C126 29.5 122 33 116 33H108V14ZM116 28C118.5 28 120 26.3 120 23.5C120 20.7 118.5 19 116 19H114V28H116Z" fill="#111111"/>
  <path d="M131 14H145V19H137V21H144V26H137V28H145V33H131V14Z" fill="#111111"/>
  <path d="M150 14H159C163.5 14 166.5 16.5 166.5 20.3C166.5 22.7 165.2 24.7 163 25.8L168 33H161.5L157.5 27H156V33H150V14ZM158.5 22.5C159.8 22.5 160.7 21.8 160.7 20.6C160.7 19.4 159.8 18.7 158.5 18.7H156V22.5H158.5Z" fill="#111111"/>
</svg>
